<!DOCTYPE svg PUBLIC "-//W3C//DTD SVG 20010904//EN" "http://www.w3.org/TR/2001/REC-SVG-20010904/DTD/svg10.dtd">
<svg version="1.0" xmlns="http://www.w3.org/2000/svg" width="1024px" height="400px" viewBox="0 0 10240 4000" preserveAspectRatio="xMidYMid meet">
<g id="layer101" fill="#020202" stroke="none">
 <path d="M1241 3774 c-42 -35 -43 -84 -2 -125 50 -49 121 -37 147 27 12 29 12 39 0 68 -26 61 -92 75 -145 30z"/>
 <path d="M1875 3620 c4 -49 3 -90 -1 -90 -5 1 -29 11 -54 24 l-45 24 -69 -35 c-54 -27 -71 -32 -75 -22 -2 8 -18 26 -34 42 -23 22 -39 27 -77 27 -87 0 -133 -62 -110 -147 10 -36 12 -171 11 -533 -1 -267 -4 -499 -7 -517 -12 -64 -90 -99 -151 -66 -17 9 -36 26 -42 37 -13 24 -17 1001 -6 1102 7 59 6 61 -25 92 -27 27 -39 32 -82 32 -100 0 -138 -80 -138 -292 l0 -127 -317 -160 -318 -159 0 -822 0 -823 318 -160 317 -160 0 -284 0 -283 115 0 115 0 0 323 0 322 105 0 105 0 0 -322 0 -323 115 0 115 0 0 110 c0 75 4 110 11 110 6 0 36 -14 67 -32 l55 -31 74 36 c40 21 75 37 77 37 3 0 10 -16 16 -35 20 -61 81 -127 146 -159 50 -25 74 -30 154 -34 79 -3 104 0 151 17 75 29 141 88 176 159 27 55 28 64 31 227 l4 171 311 156 312 155 3 819 2 819 -295 149 c-162 81 -301 153 -309 160 -14 10 -13 37 9 246 13 129 26 252 29 273 l4 37 -124 0 c-122 0 -124 0 -124 -23 0 -22 -34 -427 -65 -777 -9 -96 -18 -200 -20 -230 -3 -30 -7 -77 -9 -105 -3 -27 -8 -90 -12 -140 -8 -109 -15 -125 -55 -125 -21 0 -32 6 -38 23 -7 19 -19 133 -36 352 -3 33 -9 107 -15 165 -5 58 -12 137 -15 175 -3 39 -7 88 -10 110 -5 45 -7 61 -30 335 -9 107 -18 205 -21 218 -4 21 -8 22 -115 22 l-111 0 7 -90z m-41 -174 c61 -27 61 -27 71 -166 4 -47 8 -103 10 -125 2 -22 7 -71 10 -110 4 -38 8 -88 10 -110 3 -22 18 -186 35 -365 29 -311 32 -327 58 -370 15 -24 48 -58 72 -75 44 -29 49 -30 160 -29 106 0 118 2 155 26 51 33 68 53 89 106 14 36 47 304 71 572 11 116 27 255 30 258 1 2 123 -57 269 -130 l266 -133 0 -761 c0 -597 -3 -764 -12 -772 -7 -6 -125 -68 -263 -138 l-250 -127 -7 329 c-4 181 -11 346 -16 366 -24 91 -85 162 -182 207 -48 23 -68 26 -155 26 -131 0 -163 -13 -244 -94 -102 -101 -101 -97 -101 -698 l0 -489 -67 -33 -67 -33 -68 33 -67 33 -3 560 c-3 553 -3 562 -25 601 -51 96 -117 122 -311 122 -154 1 -212 -14 -268 -69 -64 -61 -68 -91 -65 -510 1 -197 1 -358 -2 -358 -2 0 -126 61 -275 135 l-272 135 2 767 3 767 260 133 c143 73 263 133 268 133 4 0 7 -132 7 -292 0 -414 11 -477 100 -569 48 -50 64 -60 128 -79 105 -32 206 -25 296 19 70 34 108 73 147 149 l24 47 3 541 3 540 52 27 c29 14 55 26 59 26 4 1 32 -10 62 -23z m493 -1758 c13 -12 27 -38 33 -57 14 -49 13 -974 0 -1023 -19 -69 -92 -98 -159 -64 -55 29 -55 26 -52 581 2 363 6 517 14 535 16 34 74 62 112 55 16 -3 39 -15 52 -27z m-962 16 c39 -15 45 -53 45 -294 l0 -230 -105 0 -106 0 3 246 c3 245 3 246 27 265 23 19 100 26 136 13z"/>
 <path d="M4930 2065 l0 -1035 150 0 150 0 0 430 0 430 80 0 80 0 0 140 0 140 -80 0 -80 0 0 465 0 465 -150 0 -150 0 0 -1035z"/>
 <path d="M6620 2065 l0 -1035 150 0 150 0 0 1035 0 1035 -150 0 -150 0 0 -1035z"/>
 <path d="M7694 3090 c-106 -15 -173 -62 -213 -150 -19 -42 -21 -65 -21 -327 l0 -283 145 0 145 0 0 60 0 60 325 0 325 0 0 -60 0 -60 146 0 145 0 -3 293 c-3 283 -4 293 -27 340 -26 54 -67 89 -132 114 -38 14 -93 17 -409 19 -201 1 -393 -1 -426 -6z m672 -258 c21 -14 34 -51 34 -96 l0 -46 -325 0 -325 0 0 48 c0 52 13 72 60 91 29 11 539 14 556 3z"/>
 <path d="M8910 2960 l0 -140 525 0 525 0 0 140 0 140 -525 0 -525 0 0 -140z"/>
 <path d="M5913 3070 c-41 -25 -53 -48 -53 -104 0 -77 73 -130 146 -106 100 33 114 169 20 214 -45 21 -74 20 -113 -4z"/>
 <path d="M4109 3056 c-25 -6 -61 -21 -80 -32 -45 -26 -95 -101 -108 -164 -7 -35 -11 -338 -11 -940 l0 -890 145 0 145 0 0 410 0 410 135 0 135 0 0 -410 0 -410 150 0 150 0 0 843 c0 470 -4 879 -10 925 -16 144 -76 224 -189 256 -71 20 -390 22 -462 2z m313 -267 c43 -23 48 -60 48 -374 l0 -296 -132 3 -133 3 0 301 c0 320 3 340 49 362 28 14 142 15 168 1z"/>
 <path d="M5637 2882 c-40 -27 -54 -50 -77 -121 -19 -61 -20 -90 -20 -721 0 -478 3 -673 12 -712 27 -118 119 -227 234 -276 73 -31 222 -42 305 -22 113 27 221 107 268 198 51 99 52 124 49 835 -3 615 -4 666 -22 712 -34 92 -87 130 -173 123 -63 -5 -95 -30 -118 -93 -15 -38 -15 -47 -1 -102 14 -52 16 -150 16 -683 0 -553 -2 -626 -16 -656 -23 -49 -65 -76 -120 -76 -52 -1 -88 21 -119 73 -19 33 -20 55 -23 644 -3 546 -1 617 14 673 23 87 15 136 -30 180 -30 31 -42 36 -93 39 -45 3 -64 0 -86 -15z"/>
 <path d="M8924 2563 c3 -21 42 -328 86 -682 90 -719 91 -726 174 -797 60 -52 125 -67 265 -62 95 3 124 8 157 26 54 28 109 92 129 151 11 31 205 1352 205 1399 0 1 -70 2 -155 2 l-154 0 -5 -32 c-3 -18 -37 -303 -75 -634 -39 -330 -73 -608 -77 -617 -4 -12 -18 -17 -50 -17 -37 0 -46 4 -54 23 -5 12 -41 290 -79 617 -39 327 -73 610 -76 628 l-6 32 -145 0 -146 0 6 -37z"/>
 <path d="M8030 1625 l0 -595 145 0 145 0 0 220 0 220 45 0 45 0 0 -220 0 -220 145 0 145 0 0 595 0 595 -145 0 -145 0 0 -235 0 -235 -45 0 -45 0 0 235 0 235 -145 0 -145 0 0 -595z"/>
 <path d="M7415 2196 c-122 -38 -191 -119 -233 -269 -23 -82 -25 -521 -3 -607 34 -134 86 -209 182 -259 52 -29 75 -34 149 -39 122 -7 202 10 270 57 137 94 177 235 167 601 -4 170 -8 216 -26 270 -39 125 -110 203 -219 242 -57 20 -228 23 -287 4z m187 -267 c42 -22 48 -64 48 -314 0 -264 -5 -292 -59 -315 -47 -19 -92 -3 -113 40 -16 30 -18 66 -18 273 0 250 6 292 47 316 24 14 69 14 95 0z"/>
 </g>
<g id="layer102" fill="#4a3704" stroke="none">
 <path d="M1892 3370 c0 -14 2 -19 5 -12 2 6 2 18 0 25 -3 6 -5 1 -5 -13z"/>
 <path d="M1423 3295 c0 -33 2 -45 4 -27 2 18 2 45 0 60 -2 15 -4 0 -4 -33z"/>
 <path d="M1902 3260 c0 -14 2 -19 5 -12 2 6 2 18 0 25 -3 6 -5 1 -5 -13z"/>
 <path d="M2142 3150 c0 -14 2 -19 5 -12 2 6 2 18 0 25 -3 6 -5 1 -5 -13z"/>
 <path d="M2362 3050 c0 -14 2 -19 5 -12 2 6 2 18 0 25 -3 6 -5 1 -5 -13z"/>
 <path d="M2592 2980 c0 -14 2 -19 5 -12 2 6 2 18 0 25 -3 6 -5 1 -5 -13z"/>
 <path d="M2352 2930 c0 -14 2 -19 5 -12 2 6 2 18 0 25 -3 6 -5 1 -5 -13z"/>
 <path d="M2162 2920 c0 -14 2 -19 5 -12 2 6 2 18 0 25 -3 6 -5 1 -5 -13z"/>
 <path d="M2582 2880 c0 -14 2 -19 5 -12 2 6 2 18 0 25 -3 6 -5 1 -5 -13z"/>
 <path d="M2172 2810 c0 -14 2 -19 5 -12 2 6 2 18 0 25 -3 6 -5 1 -5 -13z"/>
 <path d="M2342 2810 c0 -14 2 -19 5 -12 2 6 2 18 0 25 -3 6 -5 1 -5 -13z"/>
 <path d="M1952 2720 c0 -14 2 -19 5 -12 2 6 2 18 0 25 -3 6 -5 1 -5 -13z"/>
 <path d="M2182 2690 c0 -14 2 -19 5 -12 2 6 2 18 0 25 -3 6 -5 1 -5 -13z"/>
 <path d="M2332 2690 c0 -14 2 -19 5 -12 2 6 2 18 0 25 -3 6 -5 1 -5 -13z"/>
 <path d="M1962 2610 c0 -14 2 -19 5 -12 2 6 2 18 0 25 -3 6 -5 1 -5 -13z"/>
 <path d="M2192 2580 c0 -14 2 -19 5 -12 2 6 2 18 0 25 -3 6 -5 1 -5 -13z"/>
 <path d="M1972 2500 c0 -14 2 -19 5 -12 2 6 2 18 0 25 -3 6 -5 1 -5 -13z"/>
 <path d="M2542 2490 c0 -14 2 -19 5 -12 2 6 2 18 0 25 -3 6 -5 1 -5 -13z"/>
 <path d="M2202 2470 c0 -14 2 -19 5 -12 2 6 2 18 0 25 -3 6 -5 1 -5 -13z"/>
 <path d="M2312 2460 c0 -14 2 -19 5 -12 2 6 2 18 0 25 -3 6 -5 1 -5 -13z"/>
 <path d="M1982 2390 c0 -14 2 -19 5 -12 2 6 2 18 0 25 -3 6 -5 1 -5 -13z"/>
 <path d="M2532 2390 c0 -14 2 -19 5 -12 2 6 2 18 0 25 -3 6 -5 1 -5 -13z"/>
 <path d="M7533 2323 c43 -2 110 -2 150 0 40 1 5 3 -78 3 -82 0 -115 -2 -72 -3z"/>
 <path d="M8473 2323 c43 -2 110 -2 150 0 40 1 5 3 -78 3 -82 0 -115 -2 -72 -3z"/>
 <path d="M7543 2213 c9 -2 23 -2 30 0 6 3 -1 5 -18 5 -16 0 -22 -2 -12 -5z"/>
 <path d="M1024 1858 l-19 -23 23 19 c21 18 27 26 19 26 -2 0 -12 -10 -23 -22z"/>
 <path d="M2603 1580 c0 -25 2 -35 4 -22 2 12 2 32 0 45 -2 12 -4 2 -4 -23z"/>
 <path d="M2143 705 c0 -27 2 -38 4 -22 2 15 2 37 0 50 -2 12 -4 0 -4 -28z"/>
 </g>
<g id="layer103" fill="#64615a" stroke="none">
 <path d="M6615 2065 c0 -572 1 -805 2 -517 2 288 2 756 0 1040 -1 284 -2 49 -2 -523z"/>
 <path d="M8904 2960 c0 -80 2 -112 3 -72 2 39 2 105 0 145 -1 39 -3 7 -3 -73z"/>
 <path d="M9964 2960 c0 -80 2 -112 3 -72 2 39 2 105 0 145 -1 39 -3 7 -3 -73z"/>
 <path d="M4273 3073 c37 -2 96 -2 130 0 34 2 4 3 -68 3 -71 0 -99 -1 -62 -3z"/>
 <path d="M6218 2903 c6 -2 18 -2 25 0 6 3 1 5 -13 5 -14 0 -19 -2 -12 -5z"/>
 <path d="M3905 1895 c0 -478 1 -676 2 -438 2 237 2 629 0 870 -1 241 -2 47 -2 -432z"/>
 <path d="M7908 2693 c89 -2 235 -2 325 0 89 1 16 3 -163 3 -179 0 -252 -2 -162 -3z"/>
 <path d="M4205 2405 l0 -280 130 0 130 -1 -127 3 -128 4 -3 277 -2 277 0 -280z"/>
 <path d="M5835 2035 c0 -335 1 -471 2 -302 2 170 2 444 0 610 -1 166 -2 28 -2 -308z"/>
 <path d="M5535 2030 c0 -333 1 -469 2 -303 2 167 2 439 0 605 -1 167 -2 31 -2 -302z"/>
 <path d="M1202 2450 c0 -14 2 -19 5 -12 2 6 2 18 0 25 -3 6 -5 1 -5 -13z"/>
 <path d="M962 2430 c0 -14 2 -19 5 -12 2 6 2 18 0 25 -3 6 -5 1 -5 -13z"/>
 <path d="M8103 2223 c43 -2 110 -2 150 0 40 1 5 3 -78 3 -82 0 -115 -2 -72 -3z"/>
 <path d="M8483 2223 c43 -2 110 -2 150 0 40 1 5 3 -78 3 -82 0 -115 -2 -72 -3z"/>
 <path d="M5268 2173 c23 -2 61 -2 85 0 23 2 4 4 -43 4 -47 0 -66 -2 -42 -4z"/>
 <path d="M1570 1865 c13 -14 26 -25 28 -25 3 0 -5 11 -18 25 -13 14 -26 25 -28 25 -3 0 5 -11 18 -25z"/>
 <path d="M4205 1440 c0 -228 1 -322 2 -208 2 115 2 301 0 415 -1 115 -2 21 -2 -207z"/>
 <path d="M962 1680 c0 -14 2 -19 5 -12 2 6 2 18 0 25 -3 6 -5 1 -5 -13z"/>
 <path d="M1645 1160 c0 -283 1 -399 2 -258 2 142 2 374 0 515 -1 142 -2 26 -2 -257z"/>
 <path d="M2364 1265 c0 -187 2 -262 3 -167 2 95 2 248 0 340 -1 92 -3 14 -3 -173z"/>
 <path d="M964 1280 c0 -162 2 -229 3 -147 2 81 2 213 0 295 -1 81 -3 14 -3 -148z"/>
 <path d="M5645 1140 c10 -11 20 -20 23 -20 3 0 -3 9 -13 20 -10 11 -20 20 -23 20 -3 0 3 -9 13 -20z"/>
 <path d="M9664 1088 l-19 -23 23 19 c12 11 22 21 22 23 0 8 -8 2 -26 -19z"/>
 <path d="M5963 1013 c9 -2 23 -2 30 0 6 3 -1 5 -18 5 -16 0 -22 -2 -12 -5z"/>
 <path d="M7543 1013 c9 -2 23 -2 30 0 6 3 -1 5 -18 5 -16 0 -22 -2 -12 -5z"/>
 <path d="M9403 1013 c15 -2 37 -2 50 0 12 2 0 4 -28 4 -27 0 -38 -2 -22 -4z"/>
 <path d="M2604 765 c0 -71 1 -99 3 -62 2 37 2 96 0 130 -2 34 -3 4 -3 -68z"/>
 <path d="M2143 790 c0 -25 2 -35 4 -22 2 12 2 32 0 45 -2 12 -4 2 -4 -23z"/>
 <path d="M2504 408 l-19 -23 23 19 c21 18 27 26 19 26 -2 0 -12 -10 -23 -22z"/>
 </g>
<g id="layer104" fill="#ffba00" stroke="none">
 <path d="M1780 2732 l0 -739 121 -65 122 -65 60 31 c57 29 66 31 176 31 106 0 120 -2 166 -27 104 -55 168 -156 180 -283 l7 -70 251 -135 c138 -74 257 -136 264 -138 11 -3 13 140 13 750 0 414 -4 758 -8 764 -7 12 -505 264 -520 264 -4 0 -21 -125 -36 -277 -46 -458 -54 -520 -75 -562 -26 -50 -81 -97 -128 -110 -49 -14 -177 -14 -227 0 -58 16 -120 79 -139 142 -10 31 -36 275 -67 612 -28 308 -52 560 -53 561 -1 1 -26 13 -54 28 l-53 26 0 -738z"/>
 <path d="M2140 3223 c0 -5 18 -206 39 -448 34 -380 42 -441 57 -452 22 -16 26 -16 48 0 16 12 22 55 47 343 15 181 30 357 33 391 l7 63 -111 55 c-115 58 -120 60 -120 48z"/>
 </g>
<g id="layer105" fill="#a5a5a5" stroke="none">
 <path d="M964 3285 c0 -60 1 -84 3 -52 2 32 2 81 0 110 -2 29 -3 3 -3 -58z"/>
 <path d="M1204 3285 c0 -55 1 -76 3 -47 2 29 2 74 0 100 -2 26 -3 2 -3 -53z"/>
 <path d="M6092 2970 c0 -14 2 -19 5 -12 2 6 2 18 0 25 -3 6 -5 1 -5 -13z"/>
 <path d="M325 2848 c-3 -7 -4 -380 -3 -828 l3 -815 5 828 c3 455 4 827 2 827 -1 0 -5 -6 -7 -12z"/>
 <path d="M7454 2585 c0 -148 2 -211 3 -138 2 72 2 194 0 270 -1 76 -3 17 -3 -132z"/>
 <path d="M9173 2813 c148 -2 386 -2 530 0 144 1 24 2 -268 2 -291 0 -409 -1 -262 -2z"/>
 <path d="M8393 2740 c0 -25 2 -35 4 -22 2 12 2 32 0 45 -2 12 -4 2 -4 -23z"/>
 <path d="M8965 2603 c121 -7 253 -7 248 0 -2 4 -70 6 -151 5 -81 -1 -124 -3 -97 -5z"/>
 <path d="M9627 2603 c-3 -5 43 -7 101 -5 197 4 218 8 60 10 -86 1 -159 -1 -161 -5z"/>
 <path d="M6415 2030 c0 -316 1 -446 2 -287 2 158 2 416 0 575 -1 158 -2 28 -2 -288z"/>
 <path d="M8393 2390 c0 -36 2 -50 4 -32 2 17 2 47 0 65 -2 17 -4 3 -4 -33z"/>
 <path d="M8025 1625 c0 -330 1 -464 2 -297 2 167 2 437 0 600 -1 163 -2 27 -2 -303z"/>
 <path d="M7274 2118 l-19 -23 23 19 c12 11 22 21 22 23 0 8 -8 2 -26 -19z"/>
 <path d="M1642 1690 c0 -14 2 -19 5 -12 2 6 2 18 0 25 -3 6 -5 1 -5 -13z"/>
 <path d="M1204 1405 c0 -126 2 -177 3 -112 2 65 2 168 0 230 -1 62 -3 9 -3 -118z"/>
 <path d="M1404 1405 c0 -121 2 -169 3 -107 2 62 2 161 0 220 -1 59 -3 8 -3 -113z"/>
 <path d="M1905 1125 c0 -253 1 -355 2 -227 2 128 2 335 0 460 -1 125 -2 20 -2 -233z"/>
 <path d="M8338 1463 c12 -2 32 -2 45 0 12 2 2 4 -23 4 -25 0 -35 -2 -22 -4z"/>
 <path d="M9165 1090 c10 -11 20 -20 23 -20 3 0 -3 9 -13 20 -10 11 -20 20 -23 20 -3 0 3 -9 13 -20z"/>
 <path d="M1403 895 c0 -38 2 -53 4 -32 2 20 2 52 0 70 -2 17 -4 1 -4 -38z"/>
 <path d="M2364 790 c0 -80 2 -112 3 -72 2 39 2 105 0 145 -1 39 -3 7 -3 -73z"/>
 <path d="M964 600 c0 -157 2 -221 3 -142 2 78 2 206 0 285 -1 78 -3 14 -3 -143z"/>
 <path d="M1644 430 c0 -63 1 -89 3 -57 2 31 2 83 0 115 -2 31 -3 5 -3 -58z"/>
 </g>
<g id="layer106" fill="#cbbd97" stroke="none">
 <path d="M1203 3155 c0 -22 2 -30 4 -17 2 12 2 30 0 40 -3 9 -5 -1 -4 -23z"/>
 <path d="M5235 2640 c0 -256 1 -360 2 -233 2 128 2 338 0 465 -1 128 -2 24 -2 -232z"/>
 <path d="M7993 2833 c65 -2 168 -2 230 0 62 1 9 3 -118 3 -126 0 -177 -2 -112 -3z"/>
 <path d="M8694 2575 c0 -137 2 -195 3 -128 2 67 2 179 0 250 -1 70 -3 16 -3 -122z"/>
 <path d="M4464 2400 c0 -151 2 -213 3 -137 2 75 2 199 0 275 -1 75 -3 13 -3 -138z"/>
 <path d="M8402 1993 l-2 -232 -42 -4 -43 -4 43 -1 c27 -1 44 3 48 11 2 7 3 114 1 237 l-2 225 -3 -232z"/>
 <path d="M7825 2120 c10 -11 20 -20 23 -20 3 0 -3 9 -13 20 -10 11 -20 20 -23 20 -3 0 3 -9 13 -20z"/>
 <path d="M5235 1460 c0 -239 1 -337 2 -218 2 120 2 316 0 435 -1 120 -2 22 -2 -217z"/>
 <path d="M4465 1435 c0 -225 1 -319 2 -208 2 111 2 295 0 410 -1 114 -2 24 -2 -202z"/>
 <path d="M8404 1245 c0 -121 2 -169 3 -107 2 62 2 161 0 220 -1 59 -3 8 -3 -113z"/>
 <path d="M1258 1183 c29 -2 74 -2 100 0 26 2 2 3 -53 3 -55 0 -76 -1 -47 -3z"/>
 <path d="M7275 1110 c10 -11 20 -20 23 -20 3 0 -3 9 -13 20 -10 11 -20 20 -23 20 -3 0 3 -9 13 -20z"/>
 <path d="M1404 575 c0 -143 2 -200 3 -127 2 73 2 190 0 260 -1 70 -3 10 -3 -133z"/>
 </g>
<g id="layer107" fill="#ffe08e" stroke="none">
 <path d="M1712 3442 l-52 -26 0 -531 1 -530 -24 -59 c-32 -78 -75 -127 -140 -159 -75 -37 -92 -40 -194 -39 -76 0 -102 4 -140 23 -68 33 -136 100 -169 167 l-29 57 -3 355 c-2 195 -5 356 -7 358 -2 2 -122 -56 -267 -130 l-263 -134 -3 -762 c-1 -435 2 -762 7 -762 5 0 126 63 270 141 l261 141 1 72 c1 135 17 185 74 241 56 53 114 67 291 64 127 -1 165 -7 216 -35 26 -14 32 -12 133 42 l105 57 0 739 c0 406 -3 738 -7 737 -5 0 -32 -12 -61 -27z"/>
 <path d="M1315 3186 l-100 -54 0 -379 c0 -416 -2 -401 60 -427 71 -30 130 11 140 95 3 30 5 226 3 436 l-3 382 -100 -53z"/>
 <path d="M1261 816 c10 -9 89 -46 89 -41 0 5 -75 45 -86 45 -4 0 -5 -2 -3 -4z"/>
 </g>
<g id="layer108" fill="#ffffff" stroke="none">
 <path d="M1216 3841 c-49 -32 -68 -73 -64 -135 3 -54 3 -54 -23 -49 -39 8 -106 -15 -144 -48 -52 -46 -75 -130 -75 -279 l0 -118 -320 -162 -320 -161 2 -862 3 -862 317 -160 318 -160 0 -292 0 -293 175 0 175 0 0 280 c0 154 2 280 5 280 3 0 24 -9 45 -20 l40 -20 0 -260 0 -260 175 0 175 0 0 90 c0 50 2 90 5 90 4 0 20 -7 37 -16 30 -16 34 -15 91 12 45 22 61 26 65 16 10 -30 71 -98 116 -129 74 -51 140 -66 265 -61 129 5 202 33 274 106 85 87 116 191 117 389 l0 103 310 155 310 155 0 859 0 858 -302 153 c-167 84 -305 154 -306 156 -4 2 44 495 53 547 l5 27 -188 0 -188 0 -18 -222 c-10 -123 -21 -249 -24 -280 l-7 -57 -61 34 -60 34 -18 213 c-9 117 -20 228 -23 246 l-5 32 -175 0 -176 0 7 -66 c6 -58 5 -66 -9 -60 -9 3 -42 -7 -73 -23 l-57 -29 -28 24 c-35 30 -99 47 -147 39 l-37 -6 4 48 c5 59 -18 108 -66 140 -44 30 -133 32 -175 4z m127 -42 c60 -31 74 -97 32 -147 -32 -38 -65 -46 -110 -28 -40 17 -70 73 -59 109 18 61 85 93 137 66z m757 -100 c0 -6 7 -89 15 -183 9 -94 17 -193 20 -220 2 -27 7 -52 12 -56 4 -4 56 -33 116 -64 79 -43 107 -53 107 -42 0 25 40 487 46 534 l5 42 125 0 c87 0 124 -3 124 -11 0 -7 -12 -129 -26 -273 -22 -219 -24 -262 -13 -269 8 -5 146 -76 307 -158 l292 -150 0 -822 0 -822 -310 -155 -310 -154 0 -136 c0 -249 -48 -348 -200 -419 -71 -32 -206 -36 -288 -8 -65 23 -152 100 -177 159 -10 24 -20 45 -22 47 -2 3 -35 -11 -73 -29 l-70 -34 -65 32 -65 32 0 -110 0 -110 -125 0 -125 0 0 320 0 320 -94 0 c-89 0 -94 -1 -100 -23 -3 -12 -6 -156 -6 -319 l0 -298 -120 0 -120 0 0 283 0 282 -318 162 -317 161 -3 821 -2 820 317 159 318 159 6 134 c7 144 12 174 41 231 37 75 131 89 192 29 26 -26 30 -38 28 -73 -1 -24 -5 -114 -8 -201 l-5 -158 103 55 103 55 -1 83 c0 46 -4 106 -8 134 -7 39 -5 58 8 82 42 81 173 81 209 0 6 -16 14 -27 18 -26 3 2 35 19 72 38 l66 35 46 -23 c25 -12 48 -22 50 -22 2 0 3 12 0 28 -2 15 -7 53 -10 85 l-5 57 120 0 c82 0 120 -4 120 -11z m-753 -206 c0 -38 4 -102 8 -143 l7 -75 -46 -23 c-26 -12 -49 -22 -51 -22 -12 0 -3 129 12 183 12 46 14 68 6 103 l-10 44 36 0 37 0 1 -67z"/>
 <path d="M1735 1971 c-16 -10 -61 -35 -98 -56 l-69 -37 21 -22 c11 -12 28 -39 38 -61 17 -37 18 -86 21 -593 l3 -553 64 -31 64 -32 60 29 60 28 3 511 c3 510 3 511 27 570 13 32 39 76 59 98 19 21 33 40 31 42 -14 11 -238 126 -245 125 -5 0 -22 -9 -39 -18z"/>
 <path d="M1253 1700 c-39 -16 -43 -39 -43 -279 l0 -231 95 0 95 0 0 234 c0 208 -2 236 -17 255 -20 24 -95 36 -130 21z"/>
 <path d="M2213 1700 c-12 -5 -30 -21 -40 -37 -17 -25 -18 -65 -21 -530 -3 -565 -3 -561 64 -589 45 -19 84 -11 115 22 l24 26 0 530 0 530 -33 29 c-33 30 -67 36 -109 19z m92 -1028 c-6 -54 -10 -65 -31 -74 -19 -9 -28 -8 -44 7 -15 14 -20 33 -22 94 l-3 76 50 26 50 27 3 -47 c2 -25 1 -74 -3 -109z"/>
 <path d="M693 1408 l-263 -142 43 -24 c84 -48 479 -244 483 -239 2 2 3 126 2 275 l-3 271 -262 -141z"/>
 <path d="M2610 1276 c0 -146 3 -266 8 -265 4 0 120 57 259 127 l252 127 -250 135 c-138 74 -255 137 -260 138 -5 2 -9 -112 -9 -262z"/>
 <path d="M4870 2065 l0 -1095 210 0 210 0 0 430 0 430 80 0 80 0 0 200 0 200 -80 0 -80 0 0 465 0 465 -210 0 -210 0 0 -1095z m370 575 l0 -460 75 0 75 0 0 -145 0 -145 -75 0 -75 0 0 -430 0 -430 -155 0 -155 0 0 1035 0 1035 155 0 155 0 0 -460z"/>
 <path d="M6560 2065 l0 -1095 210 0 210 0 0 1095 0 1095 -210 0 -210 0 0 -1095z m360 0 l0 -1035 -155 0 -155 0 0 1035 0 1035 155 0 155 0 0 -1035z"/>
 <path d="M7672 3149 c-85 -14 -148 -47 -197 -101 -71 -80 -75 -102 -75 -469 l0 -318 -64 -30 c-104 -50 -173 -141 -213 -282 -15 -54 -18 -103 -18 -329 0 -193 4 -280 14 -320 47 -186 151 -297 313 -331 28 -6 99 -9 158 -7 93 4 115 8 173 35 79 38 143 99 180 173 l27 54 0 -127 0 -127 397 0 396 0 -6 963 c-7 1060 -5 1024 -70 1109 -41 53 -119 94 -207 108 -79 12 -733 11 -808 -1z m889 -82 c61 -29 97 -73 120 -142 10 -29 14 -114 14 -320 l0 -280 -152 -3 -153 -3 0 66 0 65 -320 0 -320 0 0 -65 0 -65 -150 0 -150 0 0 263 c0 204 3 276 15 322 18 67 55 120 105 150 72 42 106 44 530 42 l405 -2 56 -28z m-221 -732 l0 -55 -185 0 -185 0 0 -132 0 -133 -31 55 c-16 30 -40 65 -52 78 -32 35 -101 81 -145 97 l-37 14 53 0 52 1 0 65 0 65 265 0 265 0 0 -55z m-20 -340 l0 -235 40 0 40 0 2 233 3 232 148 3 147 3 0 -601 0 -600 -150 0 -150 0 0 215 0 215 -40 0 -40 0 0 -215 0 -215 -150 0 -150 0 0 593 c0 327 3 597 7 600 3 4 71 7 150 7 l143 0 0 -235z m-645 210 c138 -36 227 -136 260 -292 17 -79 21 -489 6 -569 -26 -134 -97 -241 -192 -290 -70 -35 -181 -50 -269 -37 -168 26 -261 119 -305 305 -20 87 -21 494 0 591 16 76 63 172 103 210 91 85 254 119 397 82z"/>
 <path d="M7785 2807 c-18 -15 -28 -36 -32 -65 l-6 -42 322 0 321 0 0 46 c0 89 17 84 -300 84 -275 0 -279 0 -305 -23z m553 -44 c3 -10 -54 -13 -262 -13 -146 0 -266 2 -266 5 0 18 72 24 284 22 181 -2 240 -5 244 -14z"/>
 <path d="M7523 1930 c-12 -5 -30 -21 -40 -37 -16 -24 -18 -53 -18 -279 0 -241 1 -254 21 -281 16 -21 31 -29 61 -31 51 -4 81 20 93 73 12 51 12 428 0 479 -14 64 -66 97 -117 76z m58 -77 c6 -16 9 -116 7 -255 -2 -190 -6 -230 -18 -238 -8 -5 -18 -10 -23 -10 -20 0 -27 68 -27 265 0 118 4 225 10 239 12 34 38 33 51 -1z"/>
 <path d="M8840 2960 l0 -200 590 0 590 0 0 200 0 200 -590 0 -590 0 0 -200z m1128 -2 l-3 -143 -532 -3 -533 -2 0 145 0 145 535 0 536 0 -3 -142z"/>
 <path d="M5890 3128 c-53 -27 -87 -73 -95 -131 l-6 -42 -67 3 c-121 6 -190 -54 -229 -198 -16 -59 -18 -123 -18 -725 0 -710 0 -711 53 -825 15 -32 51 -80 86 -116 98 -98 196 -134 362 -134 157 0 266 41 360 134 60 61 98 130 119 218 22 96 22 1357 0 1443 -21 78 -52 131 -98 169 -36 29 -44 31 -123 31 l-84 0 0 35 c0 52 -38 110 -89 137 -56 29 -114 30 -171 1z m165 -71 c42 -42 52 -77 33 -125 -18 -47 -69 -82 -120 -82 -29 0 -47 8 -74 33 -87 79 -35 206 85 207 36 0 49 -6 76 -33z m-282 -161 c43 -17 85 -68 93 -111 4 -21 0 -52 -10 -81 -14 -42 -16 -126 -16 -678 0 -592 1 -633 18 -665 36 -67 121 -90 183 -48 66 44 64 20 67 687 3 539 1 613 -14 677 -27 117 -7 174 76 214 84 40 164 7 207 -86 40 -89 44 -180 40 -831 -4 -653 -3 -649 -56 -752 -75 -147 -269 -232 -462 -204 -173 25 -291 121 -345 282 -18 52 -19 97 -19 730 0 616 2 680 18 732 37 120 126 174 220 134z m247 -137 c0 -19 7 -56 15 -80 13 -39 15 -131 13 -668 l-3 -623 -24 -19 c-34 -28 -79 -21 -105 14 -21 28 -21 34 -21 650 0 494 3 627 13 645 7 13 13 44 14 70 l0 47 49 0 49 0 0 -36z"/>
 <path d="M4165 3130 c-93 -11 -189 -54 -231 -103 -44 -52 -74 -129 -84 -219 -6 -47 -10 -466 -10 -960 l0 -878 210 0 210 0 0 410 0 410 75 0 75 0 0 -410 0 -410 210 0 211 0 -3 943 c-3 882 -4 945 -21 992 -39 107 -114 179 -219 210 -63 18 -313 27 -423 15z m376 -64 c108 -25 166 -74 209 -176 12 -30 15 -172 17 -947 l4 -913 -156 0 -155 0 0 410 0 410 -125 0 -125 0 0 -410 0 -410 -155 0 -155 0 0 873 c0 890 3 957 38 1022 43 78 101 121 192 141 76 17 341 17 411 0z"/>
 <path d="M4265 2787 c-52 -24 -55 -41 -55 -362 l0 -295 125 0 125 0 0 304 0 305 -23 27 c-20 23 -33 28 -83 31 -36 2 -71 -2 -89 -10z m135 -73 c6 -14 10 -139 10 -280 l0 -254 -76 0 -76 0 4 263 c2 205 6 268 17 280 9 12 29 17 62 17 44 0 51 -3 59 -26z"/>
 <path d="M8854 2623 c3 -21 44 -344 91 -718 46 -374 92 -700 100 -725 35 -100 115 -178 212 -206 85 -25 300 -16 370 15 89 39 155 127 182 241 10 39 201 1393 201 1420 0 6 -81 10 -220 10 -121 0 -220 -3 -220 -7 1 -22 -145 -1252 -148 -1249 -3 4 -152 1218 -152 1243 0 10 -41 13 -211 13 l-211 0 6 -37z m361 -25 c2 -7 38 -296 80 -642 42 -347 81 -636 87 -643 6 -7 26 -13 44 -13 27 0 36 5 43 23 4 12 40 301 80 642 39 341 74 626 76 633 3 9 44 12 159 12 85 0 157 -3 159 -7 7 -14 -181 -1337 -198 -1390 -38 -125 -128 -189 -277 -200 -205 -14 -324 51 -372 203 -14 44 -176 1305 -176 1369 l0 25 145 0 c108 0 147 -3 150 -12z"/>
 </g>

</svg>